# xmcd CD database file
#
# Track frame offsets:
#	150
#	22209
#	37436
#	59718
#	75582
#	95711
#	118107
#	137862
#	161776
#	179994
#	206211
#	229490
#	251881
#	269254
#	281691
#
# Disc length: 4071 seconds
#
# Revision: 0
# Processed by: cddbd v1.5.1PL2 Copyright (c) Steve Scherf et al.
# Submitted via: CDex 1.51
#
DISCID=020fe50f
DTITLE=Karl-Heinz Steffens - David Gazarov - Lush Life
DYEAR=2002
DGENRE=Jazz
TTITLE0=I'm beginning to see the light
TTITLE1=Lush Life
TTITLE2=Why man's gone now
TTITLE3=Corcovado
TTITLE4=Oleo
TTITLE5=My Foolish Heart
TTITLE6=Variations about a German Lullaby
TTITLE7=Very early
TTITLE8=I'm old fashioned
TTITLE9=The Song is You
TTITLE10=Wave
TTITLE11=My Funny Valentine
TTITLE12=Velas
TTITLE13=I Mean You
TTITLE14=ELM
EXTD=YEAR: 2002
EXTT0=
EXTT1=
EXTT2=
EXTT3=
EXTT4=
EXTT5=
EXTT6=
EXTT7=
EXTT8=
EXTT9=
EXTT10=
EXTT11=
EXTT12=
EXTT13=
EXTT14=
PLAYORDER=
